Coordinates
version=1
nRows=20
nColumns=23
inDegrees=yes

Units are S.I. units (second, meters, Newtons, ...)
If the header above contains a line with 'inDegrees', this indicates whether rotational values are in degrees (yes) or radians (no).

endheader
time	pelvis_tilt	pelvis_list	pelvis_rotation	pelvis_tx	pelvis_ty	pelvis_tz	hip_flexion_r	hip_adduction_r	hip_rotation_r	knee_angle_r	knee_angle_r_beta	ankle_angle_r	subtalar_angle_r	mtp_angle_r	hip_flexion_l	hip_adduction_l	hip_rotation_l	knee_angle_l	knee_angle_l_beta	ankle_angle_l	subtalar_angle_l	mtp_angle_l
     22.50000000	    -11.30550849	     -0.27687074	      0.63177195	      2.22807951	      0.97906119	      1.00051835	     41.01288422	     -0.07043261	     -4.05122167	     29.87146110	      0.52135535	      4.85719609	      1.56546439	      0.00000000	    -10.51028217	     -0.19898338	     -8.05352387	     36.22134890	      0.63218180	    -27.07616342	      0.05434488	      0.00000000
     22.50666667	    -11.21091336	     -0.39321953	      0.50572775	      2.22896418	      0.97796518	      1.00095147	     39.70643648	      0.38571599	     -4.26173137	     25.87211364	      0.45155357	      5.40183837	      3.53695585	      0.00000000	    -10.12965103	     -0.29995348	     -7.43251747	     39.06306937	      0.68177918	    -26.42332164	     -0.29305720	      0.00000000
     22.51333333	    -10.78990217	     -0.67482831	      0.35081027	      2.22999607	      0.97681693	      1.00126922	     38.05462543	      0.99978989	     -4.53669621	     22.20614679	      0.38757038	      5.76108432	      5.32054468	      0.00000000	    -10.05672225	     -0.55698097	     -6.93588102	     41.95935143	      0.73232883	    -25.76690034	     -0.61324610	      0.00000000
     22.52000000	    -10.31210316	     -0.95928014	      0.17339391	      2.23099735	      0.97524677	      1.00167510	     36.43529560	      1.64638396	     -4.71683949	     19.04954053	      0.33247720	      5.79708740	      6.70373955	      0.00000000	     -9.96225893	     -0.85132633	     -6.60505994	     44.95739590	      0.78465458	    -25.12373746	     -1.14479490	      0.00000000
     22.52666667	    -10.15446185	     -1.03555846	     -0.15090580	      2.23168916	      0.97267855	      1.00215062	     35.44533082	      2.14790316	     -4.65561601	     16.76882522	      0.29267121	      5.76788034	      7.76981599	      0.00000000	     -9.39896356	     -0.85499182	     -6.32900634	     48.13742433	      0.84015655	    -24.63799657	     -2.01290938	      0.00000000
     22.53333333	     -9.29715264	     -1.65022547	     -0.24523770	      2.23288966	      0.97079201	      1.00232596	     33.54815798	      3.02958450	     -4.97824407	     14.62329223	      0.25522460	      5.19172321	      7.88538361	      0.00000000	     -9.56308052	     -1.60499698	     -6.27517578	     51.30249970	      0.89539753	    -24.22434298	     -2.58804500	      0.00000000
     22.54000000	     -8.95201844	     -1.94563738	     -0.53878710	      2.23358896	      0.96764646	      1.00272684	     32.63834477	      3.61945222	     -5.33034944	     13.64847060	      0.23821075	      4.66027582	      7.90379853	      0.00000000	     -9.02824332	     -1.97119676	     -6.31945896	     54.66523680	      0.95408837	    -23.93269434	     -3.64522438	      0.00000000
     22.54666667	     -8.39798951	     -2.32557354	     -0.98652757	      2.23408734	      0.96429607	      1.00319151	     31.74605464	      4.32675662	     -5.60157384	     13.50881185	      0.23577324	      4.08897164	      7.56081245	      0.00000000	     -8.65974941	     -2.36332331	     -6.47655377	     58.06566656	      1.01343706	    -23.67803397	     -4.76174086	      0.00000000
     22.55333333	     -7.72407289	     -2.70559434	     -1.50044184	      2.23445397	      0.96074357	      1.00373643	     30.91568117	      4.98370777	     -6.03410878	     14.11165136	      0.24629478	      3.48028587	      6.87851512	      0.00000000	     -8.36430243	     -2.79340845	     -6.79016369	     61.47229409	      1.07289393	    -23.41863844	     -5.96309117	      0.00000000
     22.56000000	     -7.18542485	     -3.29945782	     -1.95011038	      2.23465995	      0.95671395	      1.00410743	     30.31215049	      5.78993413	     -6.44152166	     15.23612554	      0.26592056	      2.90181542	      5.65678733	      0.00000000	     -7.80461769	     -3.49215511	     -7.06423623	     65.01627070	      1.13474799	    -23.25216377	     -7.08625013	      0.00000000
     22.56666667	     -6.89928101	     -3.59268278	     -2.63005847	      2.23429245	      0.95197173	      1.00465643	     30.26279842	      6.38305560	     -6.35585057	     17.19503185	      0.30010992	      2.43038402	      3.75767555	      0.00000000	     -6.85600241	     -3.84225776	     -7.46620917	     68.62831716	      1.19779009	    -22.95101929	     -8.22454903	      0.00000000
     22.57333333	     -6.56043092	     -3.92622718	     -3.34202578	      2.23369909	      0.94702163	      1.00520117	     30.31333359	      6.96383713	     -6.32850258	     19.78916978	      0.34538617	      2.35392890	      2.01783097	      0.00000000	     -5.89338543	     -4.25773558	     -7.88276596	     72.23564889	      1.26074991	    -22.64279039	     -9.34798513	      0.00000000
     22.58000000	     -5.76330351	     -4.58508496	     -3.89291390	      2.23318850	      0.94260418	      1.00549535	     29.78632967	      7.73899739	     -6.48060272	     22.55234189	      0.39361262	      2.66794821	      0.44959844	      0.00000000	     -5.40859336	     -5.06547100	     -8.21129645	     75.73964433	      1.32190617	    -22.28060908	    -10.31446041	      0.00000000
     22.58666667	     -6.16855091	     -4.37834701	     -4.87990056	      2.23143962	      0.93619741	      1.00634781	     30.99839836	      8.03611858	     -5.38217993	     26.26690231	      0.45844393	      3.49168762	     -1.79515500	      0.00000000	     -3.33012091	     -4.94212786	     -8.62875606	     79.48137294	      1.38721165	    -21.68269520	    -11.04939708	      0.00000000
     22.59333333	     -6.07159416	     -4.47033174	     -5.67478138	      2.22980291	      0.93061422	      1.00695583	     31.45984462	      8.56490431	     -4.41766520	     29.81627390	      0.52039215	      4.78898377	     -3.68485817	      0.00000000	     -1.77286213	     -5.18422363	     -8.90908828	     83.03844558	      1.44929428	    -21.10080700	    -11.71361586	      0.00000000
     22.60000000	     -6.00547306	     -4.56012199	     -6.42286997	      2.22790204	      0.92513809	      1.00759678	     31.85065339	      9.15185341	     -3.30825481	     33.30594814	      0.58129846	      6.46808695	     -5.33928084	      0.00000000	     -0.06781251	     -5.49033584	     -9.09130821	     86.52962712	      1.51022689	    -20.33370065	    -11.96397394	      0.00000000
     22.60666667	     -5.95998336	     -4.58993765	     -7.08312889	      2.22579948	      0.91998079	      1.00814958	     32.09737549	      9.69701787	     -2.11127162	     36.58454112	      0.63852070	      8.43306097	     -6.69539551	      0.00000000	      1.78777660	     -5.75826908	     -9.09761114	     89.89349874	      1.56893753	    -19.49919986	    -11.99495400	      0.00000000
     22.61333333	     -5.97473521	     -4.52393707	     -7.66079305	      2.22352877	      0.91517163	      1.00859703	     32.22973833	     10.12662207	     -0.91496479	     39.60016433	      0.69115325	     10.62836628	     -7.78678144	      0.00000000	      3.84097835	     -5.93459467	     -8.94585592	     93.08877667	      1.62470565	    -18.64424840	    -11.91119005	      0.00000000
     22.62000000	     -5.88389237	     -4.53709809	     -8.10160740	      2.22123194	      0.91110230	      1.00892931	     31.94157382	     10.53588946	      0.13086764	     42.11941771	      0.73512252	     12.90654443	     -8.43983483	      0.00000000	      5.87416192	     -6.22119197	     -8.61504974	     96.07896089	      1.67689421	    -17.62516860	    -11.37038452	      0.00000000
     22.62666667	     -5.94398406	     -4.32846817	     -8.44342660	      2.21878242	      0.90740056	      1.00905628	     31.64282386	     10.62760076	      1.08647202	     44.32219026	      0.77356815	     15.20314146	     -8.77207453	      0.00000000	      8.22847090	     -6.23747983	     -8.12517485	     98.83558167	      1.72500632	    -16.68062609	    -10.86820377	      0.00000000
